/* XPM */
static char * apple_xpm[] = {
"28 24 7 1",
" 	c #ff9ebe",
".	c #3c9e3c",
"X	c #ffff00",
"o	c #ffbe7d",
"O	c #ff0000",
"+	c #7d3cbe",
"@	c #0000ff",
"               ....         ",
"              ....          ",
"              ....          ",
"              ...           ",
"        ..    .   ..        ",
"      ......    ......      ",
"     ..................     ",
"     ..................     ",
"    XXXXXXXXXXXXXXXXX       ",
"    XXXXXXXXXXXXXXXX        ",
"    XXXXXXXXXXXXXXXX        ",
"    oooooooooooooooo        ",
"    oooooooooooooooo        ",
"    oooooooooooooooo        ",
"    OOOOOOOOOOOOOOOOO       ",
"     OOOOOOOOOOOOOOOOO      ",
"     OOOOOOOOOOOOOOOOOO     ",
"     +++++++++++++++++      ",
"      ++++++++++++++++      ",
"      +++++++++++++++       ",
"       @@@@@@@@@@@@@@       ",
"        @@@@@@@@@@@@        ",
"          @@    @@          ",
"                            "};
