/* XPM */
static char * bsdcpu_xpm[] = {
"55 45 11 1",
"      c #888888",
".     c None",
"X     c #cccccc",
"o     c #bbbbbb",
"O     c #000000",
"+     c #eeeeee",
"@     c #cd5c5c",
"#     c #32cd32",
"$     c #999999",
"%     c #666666",
"&     c #555555",
"                                    ...................",
" XXXXXXXXXXXXXXXXXXXXXXXXXXXXXXXXXX ...................",
" XooooooooooooooooooooooooooooooooX ...................",
" Xo                              oX ...................",
" Xo OOOOOOOOOOOOOOOOOOOOOOOOOOOO oX ...................",
" Xo OOOOOOOOOOOOOOOOOOOOOOOOOOOO oX ...................",
" Xo OOOOOOOOOOOOOOOOOOOOOOOOOOOO oX .....          ....",
" Xo OOOOOOOOOOOOOOOOOOOOOOOOOOOO oX ..... ++++++++ ....",
" Xo OOOOOOOOOOOOOOOOOOOOOOOOOOOO oX ..... +@@+###+ ....",
" Xo OOOOOOOOOOOOOOOOOOOOOOOOOOOO oX ..... +@O+##O+ ....",
" Xo OOOOOOOOOOOOOOOOOOOOOOOOOOOO oX ..... ++++++++ ....",
" Xo OOOOOOOOOOOOOOOOOOOOOOOOOOOO oX ..... ++++++++ ....",
" Xo OOOOOOOOOOOOOOOOOOOOOOOOOOOO oX ..... +oooooo+ ....",
" Xo OOOOOOOOOOOOOOOOOOOOOOOOOOOO oX ..... +oOoooo+ ....",
" Xo OOOOOOOOOOOOOOOOOOOOOOOOOOOO oX ..... +oOoooo+ ....",
" Xo OOOOOOOOOOOOOOOOOOOOOOOOOOOO oX ..... ++++++++ ....",
" Xo OOOOOOOOOOOOOOOOOOOOOOOOOOOO oX ..... +oooooo+ ....",
" Xo OOOOOOOOOOOOOOOOOOOOOOOOOOOO oX ..... +oOoooo+ ....",
" Xo OOOOOOOOOOOOOOOOOOOOOOOOOOOO oX ..... +oOoooo+ ....",
" Xo OOOOOOOOOOOOOOOOOOOOOOOOOOOO oX ..... ++++++++ ....",
" Xo OOOOOOOOOOOOOOOOOOOOOOOOOOOO oX ..... ++++++++ ....",
" Xo OOOOOOOOOOOOOOOOOOOOOOOOOOOO oX ..... ++++++++ ....",
" Xo OOOOOOOOOOOOOOOOOOOOOOOOOOOO oX ..... ++++++++ ....",
" Xo OOOOOOOOOOOOOOOOOOOOOOOOOOOO oX ..... ++++++++ ....",
" Xo OOOOOOOOOOOOOOOOOOOOOOOOOOOO oX ..... +$$$$$$+ ....",
" Xo OOOOOOOOOOOOOOOOOOOOOOOOOOOO oX ..... ++++++++ ....",
" Xo OOOOOOOOOOOOOOOOOOOOOOOOOOOO oX ..... +$$$$$$+ ....",
" Xo OOOOOOOOOOOOOOOOOOOOOOOOOOOO oX ..... ++++++++ ....",
" Xo                              oX ..... +$$$$$$+ ....",
" XooooooooooooooooooooooooooooooooX ..... ++++++++ ....",
" XXXXXXXXXXXXXXXXXXXXXXXXXXXXXXXXXX .....          ....",
"                                    ..... oooooooo ....",
"... % % % % % % % % % % % % % % %........ oooooooo ....",
"... % % % % % % % % % % % % % % %........          ....",
"......&&%%%%%%%%%%%%%%%%%%%%&&............        .....",
"......&&&&&%%%%%%%%%%%%%%&&&&&.........................",
"                                     ......   .........",
" XXXXXXXXXXXXXXXXXXXXXXXXXXXXXXXXXX .  ... ... ........",
" Xo+++++++++++++++++++oooXXXXXooooX ...   .       .....",
" Xoo+++++++++++++++++++ooXXoXX+++oX ....... X X X .....",
" Xoooo+++++++++++++++ooooXoooX+++oX ....... X X X .....",
" X$$$$$$$$$$$$$$$$$$$$$$$X$$$X$$$$X .......       .....",
" XXXXXXXXXXXXXXXXXXXXXXXXXXXXXXXXXX ....... XXXXX .....",
" oooooooooooooooooooooooooooooooooo ....... XXXXX .....",
"                                    .......       ....."};

