/* XPM */
static char * debian_xpm[] = {
"28 24 17 1",
" 	c None",
".	c #BE073B",
"+	c #C43761",
"@	c #D26486",
"#	c #DC92A9",
"$	c #E3AEBF",
"%	c #E9BFCD",
"&	c #EECFDA",
"*	c #F4DEE5",
"=	c #F6E6ED",
"-	c #F7EDF1",
";	c #C12855",
">	c #C63E66",
",	c #FEFEFE",
"'	c #D37895",
")	c #BE1C4A",
"!	c #CB5276",
",,,,,,,,,,,,,,,,,,,,,,,,,,,,",
",,,,,,,,,,,%@!'#$-,,,,,,,,,,",
",,,,,,,,,&>......)>$,,,,,,,,",
",,,,,,,,#...!#$$#+..@,,,,,,,",
",,,,,,,#..!%,,,,,,'..',,,,,,",
",,,,,-=))#,,,,,,,,,'..%,,,,,",
",,,,,-@.%,,,,,,,,,,-;+$,,,,,",
",,,,,%.#,,,,,$@'$*,,'.&,,,,,",
",,,,,'.*,,,,$#,,,-,,$.&,,,,,",
",,,,,!!,,,,,',,,,,,,%.%,,,,,",
",,,,,!',,,,*',,,,,-,$)=,,,,,",
",,,,,!#,,,,*!,,,,&-,#!-,,,,,",
",,,,,!#,,,,,+-,-*-,=)%,,,,,,",
",,,,,@!,,,,*#!-,,,&+$,,,,,,,",
",,,,,#;,,,,,&'+'#!>%,,,,,,,,",
",,,,,&.',,,,,-$##*,,,,,,,,,,",
",,,,,,>.*,,,,,,,,,,,,,,,,,,,",
",,,,,,%.#,,,,,,,,,,,,,,,,,,,",
",,,,,,,@;-,,,,,,,,,,,,,,,,,,",
",,,,,,,-+!,,,,,,,,,,,,,,,,,,",
",,,,,,,,-+!-,,,,,,,,,,,,,,,,",
",,,,,,,,,-'!%,,,,,,,,,,,,,,,",
",,,,,,,,,,,&'$%,,,,,,,,,,,,,",
",,,,,,,,,,,,,,,,,,,,,,,,,,,,"};
