/* XPM */
static char * next_xpm[] = {
"28 24 9 1",
" 	c #c3c3c3",
".	c #828282",
"X	c #000000",
"o	c #ffff9e",
"O	c #ffbe5d",
"+	c #ffbe7d",
"@	c #ff0000",
"#	c #00ff00",
"$	c #3c9e3c",
"                .XXX        ",
"             .XXXXXX.       ",
"          .XXXXXoooXX       ",
"       .XXXOXXXoXXoXX.      ",
"    .XXXXXXXOXXoooXXXX      ",
"    .X+OOXXXOXXoXXXoXX.     ",
"    X.X+X+OOXOXXoooXXXX     ",
"    X.XXOXXXOOOXXXXX@@@.    ",
"    XX.X+XXXXX+XX@@@XXXX    ",
"   .XX.XX+XXXXX#@XXX@XXX.   ",
"   XXXX.X$#XXX#$XXXX@XXXX   ",
"   XXXX.XX$#$$#XXXXXX@XXX.  ",
"   XXXXX.XXXX#$#XXXXX@XXX.  ",
"   XXXXX.XXXX#$X$#$XXXX.    ",
"   .XXXXX.XX#$XXXXXX. .XX.  ",
"    XXXXX.XX#XXXX. .XXXXX   ",
"    .XXXXX.XXX. .XXXXXXXX   ",
"     XXXXX.X..XXXXXXXXXXX   ",
"     .XXXXX.XXXXXXXXXXXX.   ",
"      XXXXX XXXXXXXXXXXX    ",
"      .XXXX.XXXXXXXXXXXX    ",
"       XXX.XXXXXXXXXX.      ",
"       .XX XXXXXXX.         ",
"        XX XXXX.            "};
