/* XPM */
static char *redhat_xpm[] = {
"28 24 2 1",
" 	c #ff9ebe",
".	c #ff0000",
"                            ",
"                            ",
"       ...        ...       ",
"       ..............       ",
"       ..............       ",
"       ..............       ",
"       ..............       ",
"       ..............       ",
"       ..............       ",
"       ..............       ",
"       ..............       ",
"       ..............       ",
"       ..............       ",
"       ..............       ",
"       ..............       ",
"       ..............       ",
"       ..............       ",
" ..    ..............    .. ",
" ...   ..............   ... ",
"  ........................  ",
"   ......................   ",
"     ..................     ",
"        ............        ",
"                            "};
